<?xml version="1.0" encoding="utf-8"?>
<!-- Generator: Adobe Illustrator 18.1.1, SVG Export Plug-In . SVG Version: 6.00 Build 0)  -->
<!DOCTYPE svg PUBLIC "-//W3C//DTD SVG 1.1//EN" "http://www.w3.org/Graphics/SVG/1.1/DTD/svg11.dtd">
<svg version="1.1" id="Ebene_1" xmlns="http://www.w3.org/2000/svg" xmlns:xlink="http://www.w3.org/1999/xlink" x="0px" y="0px"
	 viewBox="0 0 283.2 283.2" enable-background="new 0 0 283.2 283.2" xml:space="preserve">
<g>
	<path fill="#FEFEFE" d="M93.1,283.1c-29.8,0-59.7-0.1-89.5,0.1c-3,0-3.6-0.6-3.6-3.6c0.1-92,0.1-184,0-276C0,0.6,0.6,0,3.6,0
		c92,0.1,184,0.1,276,0c3,0,3.6,0.6,3.6,3.6c-0.1,92-0.1,184,0,276c0,3-0.6,3.6-3.6,3.6c-29.5-0.1-59-0.1-88.5-0.1
		c-1-0.9-1.9-1.9-2.3-3.2c-3.2-11.1-7.2-22-9.4-33.4c0.4-2.4,2.4-3,4.3-3.6c22.6-7,39.4-21.1,51.1-41.4c1.8-3,4-4.4,7.5-4.8
		c12.7-1.5,21-20,14-30.6c-1.9-2.9-5.4-3.8-7.8-6.2c2.2-13.1-2.7-24.5-8.1-35.9c-0.9-1.9-2.6-3.5-2-5.9c1.1-2.1,3.2-2.2,5.1-2.6
		c5.6-1.5,11.5-2.1,16.8-4.7c1.7-0.8,4.1-1.5,3.9-4c-0.2-2.1-2.3-2.7-4-3.3c-6.8-2.7-14-4.1-21.3-5.1c-2.5-0.3-4.9-0.9-7.3-1.5
		c-3.1-0.6-4.9-2.4-5.2-5.7c-0.4-4.3-2.5-8.2-2.8-12.5c-0.9-7.1-5.2-12.6-9.5-17.8c-7.8-9.4-17.1-17.2-28.3-22.5
		c-7.1-3.3-14.5-5.2-22.2-3.2c-14.6,3.9-29,3.8-43.7-0.3c-9.4-2.6-18.4,1.2-26.6,6c-12.4,7.3-22.5,17-29.9,29.5
		c-1.6,2.6-2.5,5.4-3.1,8.4c-1.2,4.3-1.9,8.6-2.7,13c-0.3,1.7-0.3,3.6-2,4.8c-9.4,1.8-19.1,2.3-28.2,5.5c-2.9,1-7.2,1.3-7.4,4.8
		c-0.2,3.7,4.2,4.1,7,5.2c4.7,1.8,9.6,2.5,14.5,3.6c1.8,0.4,3.7,0.4,4.9,2.1c0.6,1.2,0.4,2.3-0.3,3.3c-3.9,6.5-6,13.7-8.9,20.6
		c-1.8,2.6-1.2,5,0.6,7.3c1.8,2.3,2.7,4.9,2.4,7.9c-0.2,2.2-1,3.6-3.3,4.3c-10.2,3.1-14.2,11-10.5,21.1c3,8.1,7.7,14.4,17.5,14.5
		c3.3,0,4.9,2.4,6.3,4.9c8.1,14.4,19.7,25.4,33.9,33.7c5.1,3,10.6,4.9,16,6.9c2,0.8,4.2,1.3,4.7,3.9c-1.5,9.9-5.4,19.2-8.3,28.7
		C95.8,277.8,95.6,281,93.1,283.1z"/>
	<path fill="#0098CB" d="M93.1,283.1c3.7-12.3,7.3-24.6,11-37c4.4-2.1,8.4-0.9,12.4,1.1c0.5,0.7,0.7,1.5,0.9,2.3
		c0.5,7,4.5,11,10.9,13.4c9.3,3.5,18.4,3.5,27.7,0c6-2.2,9.9-5.9,10.8-12.4c0.1-1.1,0.4-2.2,1.1-3.1c3.9-2.2,7.9-3.7,12.2-1.3
		c3.7,12.3,7.3,24.6,11,36.9C158.4,283.1,125.7,283.1,93.1,283.1z"/>
	<path fill="#FEDBB7" d="M116.4,248.1c-4-1.3-8.1-2.2-12.3-1.9c-2.1-3.1-5.8-2.9-8.7-4c-19.9-7.6-34.9-20.8-45.7-39
		c-1.9-3.2-3.6-5.3-8-5.2c-8.4,0.2-17.3-10.6-17.5-20.5c-0.3-10.1,3.2-16.7,12.8-17.3c2.8-0.2,3.3-5,0.9-8.7
		c-2-3.2-4.9-6.1-1.8-10.2c3,7,5.9,14.1,11.8,19.4c0.5,0.4,0.9,1,1.6,1.2c0.8-0.9,0.6-2.2,0.9-3.3c0.9-3.1,2.4-4.8,5.7-2.8
		c3.7,2.1,4-0.1,3.5-2.9c-0.9-4.6-0.8-9.3-0.5-13.9c0.1-1,0.3-2.2,1.4-2.4c1.2-0.3,1.6,1,2,1.8c1.6,3.5,2.5,7.2,4.7,10.8
		c1.7-1.1,1.7-3,2.4-4.3c1-1.9,2.3-3.3,4.6-3.3c7.1,0,13.7-2.4,20.6-3.9c1.8-0.4,3.5-1,5.4-1c4.3-0.1,6.7-3,5.9-7.3
		c-0.5-2.4-2-4.8,0.8-6.8c6.8-1,13.6-1.3,20.4,0.2c5.5,4.8,9.8,10.7,15,15.8c1,1,1.5,3.1,3.2,2.8c1.9-0.4,1.6-2.6,2.3-4.1
		c1.9-4.2,1.9-9.1,4.7-13c0.4-0.3,0.8-0.5,1.3-0.7c3.2-0.4,4.8,1.8,6.3,4c2.9,4.2,6,8.3,9.6,12.9c1.4-4.1,1.7-7.9,2.7-11.6
		c0.6-2.5,0.8-5.4,3.9-6.5c6.4-1.5,12.8-2.1,19.3-0.8c0.3,0.1,0.6,0.3,0.8,0.5c1.7,2,4.2,4.3,2.8,6.9c-1.5,2.7-4.5,0.7-6.8,0.3
		c-2.6-0.5-5.1-1.5-7.8-1.7c-2.8-0.3-5.7-0.2-6.4,3.2c-0.6,3.2,2,4.3,4.5,5c7.7,2.2,15.5,4,23.3,5.6c2.6,0.5,5.2,0.2,6.3-2.6
		c1.1-3-0.9-4.5-3.3-5.8c-4.7-2.5-5.4-6.7-2-12c0.9-0.5,1.9-0.6,2.9-0.3c6.4,4.9,9.7,12.1,13.7,18.7c1.1,1.9-0.4,3.8-1.3,5.6
		c-1,2.2-2.2,4.4-3.6,7.3c3-2,5.6-3.7,8.3-5.2c3.1-1.7,4.2-0.5,4.4,2.6c0.2,3-0.4,6-1.2,9.3c1.5-0.9,2.6-2.5,4.3-1.9
		c2,0.7,1.8,2.6,1.9,4.2c0.1,2.8,1.3,2.8,3.6,1.9c3-1.2,5.4-4.2,9.1-2.9c10.4,2.2,12,11.1,10.8,19.9c-1.4,10.3-8.9,17-19.3,18.1
		c-2.5,0.3-3.3,1.9-4.2,3.6c-9.5,17.1-23.1,29.7-40.7,38.3c-5,2.4-10.8,2.9-15.4,6.3c-4.2-0.3-8.2,1-12.2,1.9
		c-1.1,1.4-2.6,2.1-4.3,2.3c-14.7,1.7-29.4,2-44.1-0.8C118.3,249.3,117.2,249,116.4,248.1z"/>
	<path d="M59.2,78c0.8-5.6,4-10.2,7.2-14.5c9.2-12.1,20.2-22,34.5-27.7c7.1-2.8,14.5-3.9,21.9-1.7c12.4,3.6,24.6,3.8,37.1,0.3
		c10-2.8,19.8-1.2,28.9,3.8c15,8.4,27.1,19.6,34.9,35.1c0.7,1.4,1.8,2.9,1.4,4.7c-1.2,2.5-3.7,2.6-5.9,3.1
		c-12.3,3.1-25.1,3.3-37.6,4.4c-18.9,1.6-37.9,1.6-56.9,1c-19.4-0.6-38.9-1.3-58.1-4.9C63.8,81.1,60.7,81,59.2,78z"/>
	<path d="M210.2,121.1c-1,0-2.1,0.1-3.1,0.1c-3.6,2.3-7.3,3.3-11.3,1c-7-0.6-13.8,0.5-20.8,0.9c-6.3,1.6-12.7,3.1-19.1,0.7
		c-1-0.4-1.9-0.3-2.9,0.1l0,0.1c-8.3,2.7-16.5,2.7-24.8,0c-7.3-0.9-14.5-1-21.8-0.8c-3,2.1-6.1,0.7-9.2,0.3c-3-0.1-6,0.1-9-0.4
		c-2-0.6-4-1-6.1-0.3c-0.5,0.1-1.1,0.1-1.6,0.1c-9.1-0.7-18.1-1.4-27.1-2.5c-2.6-0.3-5.3-0.7-7.5-2.3c-6.6-2.2-13.7-2.4-20.2-5.1
		c-3.2-1.3-7.8-2.2-8-5.7c-0.2-4.2,4.7-5.1,8.1-6.1c9.5-2.9,19.2-5,29.3-5.1c10.9,4.7,22.6,5.3,34.1,6.3c23.9,2.1,47.8,2.7,71.7,2
		c16.9-0.5,33.8-1.5,50.6-3.7c5.4-0.7,10.8-1.7,15.8-4.3c1.4-0.8,3.1-1.3,4.8-0.5c8.7,1.3,17.4,2.3,25.7,5.1
		c1.7,0.6,3.3,1.4,5.1,1.9c2,0.7,3.7,2.1,3.8,4.1c0.1,2.2-2.1,3.2-3.8,4.1c-3.5,1.9-7.3,2.9-11.2,4c-4.1,1.1-8.5,1.2-12.4,2.9
		C229.8,121.5,220.2,122.7,210.2,121.1z"/>
	<path fill="#663300" d="M232,96c-6.3,3-12.6,5.6-19.6,6.2c-9.4,0.8-18.8,2.2-28.2,2.8c-21.8,1.4-43.6,1.8-65.4,0.9
		c-17.9-0.8-35.9-1.2-53.5-4.9c-3.7-0.8-8.1-0.7-10.4-4.8c2.1-5.9,1.1-12.5,4.2-18.1c9.8,3.7,20.1,4,30.3,4.9
		c23.5,2.1,47.1,2.8,70.6,1.9c20.6-0.8,41.4-1.2,61.7-5.8c1.1-0.3,2.2-0.7,3.3-1.1c1,5.2,3.3,10.1,3.4,15.4
		C228.6,96.2,231.2,94.6,232,96z"/>
	<path fill="#663300" d="M96.8,122.4c3.2,0.3,6.3,0.6,9.5,0.9c-0.1,1-0.6,2.3-0.2,2.9c3.2,4.6,1.7,7.5-2.3,10.9
		c-1.7,1.4-2.1,0.2-3.1,0.3c-3.3,0.5-6.5,1.4-9.7,2.1c-5.8,1.1-11.4,3.9-17.5,2.8c-1.9-0.4-2.2,1.1-2.6,2.3c-0.9,2.5-1.7,4.9-2.7,8
		c-4.1-4.8-5-10.6-7.8-16.2c-0.9,8,0.6,15.2,0.7,22.6c-3.5-0.5-5.7-3.2-8.8-3.9c-1.5,3-0.8,6.3-1.7,10.4
		c-6.5-7.7-14.7-13.4-14.6-24.4c2.5-8,5.6-15.7,9.8-22.9c12.1,1.3,24.2,2.6,36.4,3.9c0.7,3-1.4,4.9-3.1,7.5c5-1.3,9.7-2.7,14.4-3.5
		C95.9,125.6,96.1,123.9,96.8,122.4z"/>
	<path fill="#663300" d="M210.2,121.1c9.7-1,19.4-2,29.1-3c6,10,9.9,20.8,11.7,32.3c0.6,3.5,0.7,6.8-2,9.6c-4.5,2-9,4-13.7,6.2
		c0-3.2,0-6,0-8.9c-3.2,0.1-4.1,3.4-6.9,4.3c0.9-4.9,2.4-9.7,1.4-15.3c-4.3,2.6-8.4,5.2-13.5,8.3c2.2-4.7,3.8-8.4,5.7-12.1
		c0.8-1.7,0.8-2.9-0.3-4.5C217.7,132.5,214,126.8,210.2,121.1z"/>
	<path fill="#FEDBB7" d="M167.6,251.1c-0.4,5.9-3.6,9.7-8.9,12.1c-11.1,4.9-22.2,4.9-33.3,0c-5.7-2.5-8.9-6.7-9-13.1
		c2.1-1.2,3.9,0,5.6,0.8c13.2,5.4,26.5,5,39.8,0.7C163.7,251,165.6,249.9,167.6,251.1z"/>
	<path fill="#FEC99A" d="M167.6,251.1c-7.2,2.4-14.5,4.5-22.2,5.1c-10.3,0.7-19.7-2.3-28.9-6.1c0-0.7,0-1.3-0.1-2
		c9.8,0.4,19.4,2.5,29.2,2.1c7.5-0.3,14.9-0.9,22.2-2.1C167.8,249.1,167.7,250.1,167.6,251.1z"/>
	<path fill="#FDFDFD" d="M110,166.5c-0.2,0.1-0.3,0.3-0.3,0.6c-0.4,0.3-0.8,0.4-1.3,0.4c-0.8-0.3-1.4-0.9-2-1.5
		c-4.5-3.9-8.3-4.6-12.7-2.3c-4.4,2.3-6.9,7.4-6.2,12.6c0.7,5.4,4.3,10,8.8,11c4,0.9,7.1-1,9.8-3.6c1.5-1.4,2.1-3.4,3.7-4.7
		c0.5-0.2,1-0.2,1.4,0c0.3,0.7,0.4,1.5-0.2,2.1c-0.3,3-0.9,5.8-3.1,8c-10.3,11.1-28.8,7.6-33.9-6.5c-3.3-9-0.9-17.3,5.5-24
		c5.9-6.2,13.6-7.3,21.7-4.7C107.3,156,111,161.3,110,166.5z"/>
	<path fill="#FDFDFD" d="M173.9,166.9l0.3-0.2l-0.1-0.3c-0.8-4.5,2-9.3,6.9-11.7c10.2-5,22.6-0.5,27.8,10
		c5.4,11.1,1.8,23.7-8.4,28.8c-7.6,3.9-18.4,1.9-24.3-4.5c-2.2-2.2-2.8-5.1-3.1-8c-0.6-0.7-0.5-1.4-0.2-2.1c0.5-0.2,0.9-0.2,1.4,0
		c1.7,1.6,2.6,3.8,4.4,5.4c5.7,5.1,13.2,3.6,16.5-3.2c2-4.1,2.2-8.3,0.2-12.4c-3.1-6.4-10.6-8.1-16.4-3.8c-1.4,1-2.2,3.1-4.5,2.6
		C174.3,167.3,174.1,167.1,173.9,166.9z"/>
	<path fill="#663300" d="M195.8,122.3c3.8-0.3,7.5-0.7,11.3-1c-1.1,1.8-0.7,3.9-1.1,5.8c-0.6,2.8,0.2,4.2,3.3,4.6
		c3.4,0.4,5.4,2.5,4.9,6.2c-0.5,3.8-3.3,5.1-6.5,4.7c-9.5-1.3-18.8-3.9-28-6.5c-2.6-0.7-3.8-3.2-3.4-6c0.4-2.9,2.5-4,5.3-4.3
		c2.8-0.3,5.2,0.7,7.8,1.2c3,0.7,6.1,1.4,9.9,2.2C197.9,126.5,196.8,124.4,195.8,122.3z"/>
	<path fill="#030303" d="M176.2,189.1c5.3,2.5,10.3,5.5,16.6,5c7.4-0.5,12.6-4.1,15.6-10.5c5.4-11.4-2-31.4-21.1-29.4
		c-6.8,0.7-11.1,4.7-13.2,12.2c-4.1,0.1-2.7-2.4-1.9-4.3c3.6-9,13.8-13,24.8-10.1c9.1,2.5,15.9,12.2,16,22.8
		c0.1,10.4-5.8,18.9-15.2,21.4c-6.6,1.7-13.2,1.2-19.2-2.6C177.1,192.8,175,191.8,176.2,189.1z"/>
	<path fill="#030303" d="M110,166.5c-2.4-12.5-15.6-14.6-24.9-10.3c-12.7,5.9-15,25.3-4.3,34.1c6.1,5,16.4,5.3,23.3,0.9
		c1.2-0.8,2-2.3,3.8-1.9c0.4,5.1-3.9,5.8-7,6.8c-10,3.4-19.4,0.7-25.3-6.6c-5.7-7.2-6.3-18-1.3-26.8c7.5-13.4,26.5-15.6,35.2-4.1
		c1.2,1.6,2,3.4,2.8,5.2C113.5,166.1,112.1,166.6,110,166.5z"/>
	<path fill="#653301" d="M128.2,124c8.3,0,16.5,0,24.8,0c-2.1,6.6-4.1,13.2-6.4,20.6C139.9,137.7,133.4,131.5,128.2,124z"/>
	<path fill="#663301" d="M153,123.9c7.3-0.3,14.7-0.5,22-0.8c-2.2,6.2-2.9,12.8-4.3,19.8c-5.1-4.8-8.4-10.5-12.2-15.8
		C157.1,125.3,155.9,123.2,153,123.9z"/>
	<path fill="#FE9A99" d="M161.2,220.2c-7.7,3.2-15.5,5.7-24,5c-0.7-0.1-1.3,0-2,0c-1.9-0.2-4.8,0-4.7-2.5c0.1-2.6,2.9-1.5,4.5-1.4
		c9.8,0.5,19.3-0.4,27.4-6.7c1.2-0.9,2.3-1.8,3.4-2.9c0.8-0.9,1.5-2.1,2.8-0.9c1.1,1.1,0.2,2.2-0.6,3
		C165.7,215.9,163.4,218.1,161.2,220.2L161.2,220.2z"/>
	<path fill="#0D0C0A" d="M141.6,192.6c-1.6,2-3.1,4-4.6,5.9c-0.6,0.8-1.6,1.4-2.6,0.7c-1-0.7-0.5-1.8,0.1-2.6
		c0.2-0.3,0.5-0.5,0.6-0.8c6.1-8.6,9-8.4,14.2,0.9c0.5,0.9,1.3,1.7,0.1,2.5c-1,0.7-1.8,0.1-2.5-0.8
		C145.2,196.5,144.3,193.7,141.6,192.6z"/>
	<path fill="#1D1815" d="M161.1,220.2c1.7-0.3,3.6-1,4.7,1.2c0.5,1,0.3,1.9-0.4,2.7c-0.8,1-1.9,1.3-3.1,1
		C159.5,224.1,159.8,222.2,161.1,220.2C161.2,220.2,161.1,220.2,161.1,220.2z"/>
	<path fill="#FEFDFD" d="M109.2,167.1c0.2,0,0.4,0,0.6,0c4.2,4.3,2.3,9.2,1.3,14.1c0-0.7,0-1.3,0-2c-2.2-2.4-0.6-5.7-2-8.3
		C108.7,169.5,108,168.3,109.2,167.1z"/>
	<path fill="#FEFDFD" d="M173.1,179.1c0,0.7,0,1.3,0,2c-1-4.8-2.8-9.6,0.9-14.2c0,0,0.1,0.1,0.1,0.1c0.8,0.9,1,2,0.9,3.2
		C173.9,173.1,175.3,176.5,173.1,179.1z"/>
	<path fill="#FBD8B4" d="M96.8,122.4c0.9,2.5,0.8,4.2-2.6,4.8c-5.2,0.9-10.3,2.4-15.5,3.6c-0.3,0.1-0.6,0-1.3-0.1
		c1.6-2.9,3.1-5.8,4.6-8.6c0,0,0,0,0,0c1.5-1,3.2-0.5,4.8-0.3C90.2,122,93.5,122.2,96.8,122.4z"/>
	<path fill="#663300" d="M86.9,121.9c-1.6,0.1-3.2,0.2-4.8,0.3C83.6,120.4,85.2,120.9,86.9,121.9z"/>
	<path fill="#010101" d="M109.2,167.1c-0.5,1.3,0.5,2.1,1,3c0.5,3,0.5,6,0,9c-4.5,9.7-12.9,12.5-19.6,6.4
		c-4.7-4.3-5.8-13.2-2.2-18.8c3.2-5,9.1-6.8,14.8-4.7C105.9,163,107.2,165.3,109.2,167.1z"/>
	<path fill="#E2DEDA" d="M110.2,179.1c0-3,0-6,0-9c2,2.9,0.7,6,0.9,9c0,0-0.4,0-0.4,0L110.2,179.1z"/>
	<path fill="#010101" d="M173.9,170.1c0-1,0.1-2,0.1-3c1.6,0,2.1-1.3,3-2.2c5.3-5.5,14.2-4.7,18.5,1.6c3.4,5,3,13.6-0.9,18.1
		c-6.3,7.3-16,4.7-20.7-5.4C173.4,176.1,173.4,173.1,173.9,170.1z"/>
	<path fill="#E2DEDA" d="M173.9,170.1c0,3,0,6,0,9c0,0-0.4,0-0.4,0s-0.4,0-0.4,0C173.2,176.1,172,172.9,173.9,170.1z"/>
</g>
</svg>
