<?xml version="1.0" encoding="utf-8"?>
<!-- Generator: Adobe Illustrator 18.1.1, SVG Export Plug-In . SVG Version: 6.00 Build 0)  -->
<!DOCTYPE svg PUBLIC "-//W3C//DTD SVG 1.1//EN" "http://www.w3.org/Graphics/SVG/1.1/DTD/svg11.dtd">
<svg version="1.1" id="Ebene_1" xmlns="http://www.w3.org/2000/svg" xmlns:xlink="http://www.w3.org/1999/xlink" x="0px" y="0px"
	 viewBox="128 -18.7 145.7 141.4" enable-background="new 128 -18.7 145.7 141.4" xml:space="preserve">
<g>
	<path fill="#646464" d="M221.2,11.3c0.2,0.4,0.4,0.8,0.5,1.2c1.5,3.5,3,7,4.4,10.5c1.4,3.3,2.8,6.6,4.2,9.9c1.5,3.5,2.9,7,4.4,10.5
		s2.9,6.9,4.4,10.4c0.4,0.9,0.7,1.7,1.1,2.6c0.1,0.2,0.1,0.3-0.2,0.3c-0.1,0-0.2,0-0.2,0c-12.5,0-24.9,0-37.4,0h-0.1
		c-0.4,0-0.4,0-0.3-0.4c1.7-4,3.4-8,5.1-11.9c1.8-4.2,3.6-8.5,5.4-12.7c2.3-5.4,4.5-10.7,6.8-16.1c0.6-1.4,1.2-2.8,1.8-4.2
		C221.1,11.3,221.2,11.3,221.2,11.3z"/>
	<path fill="#646464" d="M156.1,48.4c0,4.7,0,9.5,0,14.2c0,4.5,0.4,8.9,1.6,13.3c0.7,2.7,1.8,5.3,3.5,7.5c1.4,1.7,3,3.1,4.9,4.1
		c2.5,1.3,5.1,1.9,7.9,2c2.5,0.1,5-0.2,7.3-1c2-0.7,3.7-1.8,5.3-3.2c2.6-2.4,4.2-5.3,5.2-8.6c0.9-3,1.3-6.1,1.6-9.2
		c0.2-2.4,0.3-4.7,0.3-7.1c0-9.7,0-19.4,0-29.1c0-0.1,0-0.2,0-0.3c0-0.3,0.1-0.5,0.4-0.4c0.8,0,1.6,0,2.3,0c0.2,0,0.3,0.1,0.3,0.3
		V31c0,11,0.1,22,0,33c-0.1,5-0.8,10-2.4,14.8c-0.9,2.6-2.1,5.1-3.9,7.2c-2.4,3-5.5,5-9.2,5.9c-2.6,0.7-5.3,0.9-7.9,0.7
		c-2.5-0.1-4.9-0.6-7.1-1.6c-1.8-0.7-3.4-1.8-4.9-3.1c-3-2.8-4.8-6.2-6-10c-0.8-2.6-1.3-5.2-1.7-7.9c-0.4-2.8-0.6-5.5-0.6-8.3
		c0-10.2,0-20.4,0-30.6c0-0.5,0-0.5,0.5-0.5c0.7,0,1.4,0,2.1,0c0.5,0,0.5,0,0.5,0.5c0,4.3,0,8.6,0,12.8
		C156.1,45.5,156.1,47,156.1,48.4z"/>
	<path fill="#969696" d="M248.7,54.4c0,0.6,0,1.3,0,1.9c0,0.2-0.1,0.3-0.3,0.3c-1.2,0-2.5,0-3.7,0c-0.2,0-0.3-0.1-0.3-0.3
		c0-1.3,0-2.5,0-3.8c0-0.2,0.1-0.3,0.3-0.3c1.2,0,2.5,0,3.7,0c0.3,0,0.3,0.1,0.3,0.3C248.7,53.1,248.7,53.7,248.7,54.4z"/>
	<path fill="#969696" d="M214.2,21.9c-0.1-0.3-0.3-0.7-0.4-1c-0.5-1.5-1-3-1.6-4.6c-0.1-0.3-0.1-0.4,0.3-0.4c1.2,0,2.4,0,3.6,0.1
		c0.2,0,0.4,0,0.2,0.3c-0.7,1.8-1.3,3.6-2,5.4C214.3,21.8,214.3,21.9,214.2,21.9z"/>
</g>
</svg>
