<?xml version="1.0" encoding="utf-8"?>
<!-- Generator: Adobe Illustrator 18.1.1, SVG Export Plug-In . SVG Version: 6.00 Build 0)  -->
<!DOCTYPE svg PUBLIC "-//W3C//DTD SVG 1.1//EN" "http://www.w3.org/Graphics/SVG/1.1/DTD/svg11.dtd">
<svg version="1.1" id="Ebene_1" xmlns="http://www.w3.org/2000/svg" xmlns:xlink="http://www.w3.org/1999/xlink" x="0px" y="0px"
	 viewBox="0 0 75 75" enable-background="new 0 0 75 75" xml:space="preserve">
<g>
	<path d="M70,39.2c0.6,14.8-11.7,28.5-26.8,30.2C22.5,71.7,8.1,57.3,7.3,40C6.5,21.9,18.9,9,33.6,7.1C55.5,4.3,71.3,20.1,70,39.2z
		 M68,37.4c-0.3-8.6-3.8-15.6-10.3-21.4C50.9,10,43,8,34.4,9.2C22.3,10.8,7.6,22.5,9.6,41.8C11,55.1,23.1,69.5,42.9,67.5
		C55.2,66.2,69.1,53.4,68,37.4z"/>
	<path d="M19.9,34.3c2-0.6,3,0.1,3.9,1.4c2.3,3.3,4.5,6.6,7.1,9.7c2.2,2.6,4.2,5.3,6.3,8c0.9,1.1,1.3,1.3,2.4,0
		c3.1-3.7,5.6-7.7,8.5-11.5c1.7-2.2,3.3-4.3,4.9-6.6c1.1-1.5,2.3-1.6,3.6-0.8c-3.8,5.1-7.5,10.2-11.2,15.2c-1.9,2.5-3.9,4.9-5.8,7.4
		c-1,1.3-1.6,1-2.5-0.1c-2.8-3.3-5.3-6.9-7.8-10.5c-1.8-2.6-4-5-6-7.5C22.1,37.5,21.1,35.9,19.9,34.3z"/>
	<path d="M20.1,24.8c1.7-0.6,2.9-0.3,3.8,0.9c4.3,5.8,8.7,11.6,12.9,17.5c1,1.4,1.6,1.4,2.6,0.1c4.1-5.6,8.3-11.2,12.4-16.7
		c0.4-0.6,0.9-1.2,1.5-1.6c0.7-0.5,1.7-0.7,2.3-0.2c0.8,0.7-0.2,1.3-0.7,1.8c-5.1,6.7-10.2,13.4-15.2,20.2c-1.1,1.5-1.8,1.3-2.7,0.1
		c-3.6-4.9-7.7-9.5-11-14.6C24.4,29.7,22.2,27.4,20.1,24.8z"/>
</g>
</svg>
